<svg width="313" height="43" viewBox="0 0 313 43" fill="none" xmlns="http://www.w3.org/2000/svg">
<path d="M4.75 26V31.3C4.75 31.4667 4.83333 31.55 5 31.55H7C7.16667 31.55 7.25 31.4667 7.25 31.3V22.3L3.3 20.55C3 20.45 2.58333 20.2833 2.05 20.05C1.51667 19.7833 1.03333 19.4 0.6 18.9C0.2 18.4 7.07805e-08 17.7167 7.07805e-08 16.85V5.45C7.07805e-08 4.05 0.433333 2.93333 1.3 2.1C2.16667 1.23333 3.3 0.799997 4.7 0.799997H7.3C8.7 0.799997 9.83333 1.23333 10.7 2.1C11.5667 2.93333 12 4.05 12 5.45V12.85L7.25 12.45V5.7C7.25 5.53333 7.16667 5.45 7 5.45H5C4.83333 5.45 4.75 5.53333 4.75 5.7V16.15L8.7 17.9C9 18.0333 9.41667 18.2167 9.95 18.45C10.4833 18.6833 10.95 19.05 11.35 19.55C11.7833 20.05 12 20.7333 12 21.6V31.55C12 32.95 11.5667 34.0833 10.7 34.95C9.83333 35.7833 8.7 36.2 7.3 36.2H4.7C3.3 36.2 2.16667 35.7833 1.3 34.95C0.433333 34.0833 7.07805e-08 32.95 7.07805e-08 31.55V26H4.75ZM19.0637 36C17.5303 36 16.297 35.5667 15.3637 34.7C14.4637 33.8 14.0137 32.6833 14.0137 31.35V15.65C14.0137 14.2833 14.4637 13.1667 15.3637 12.3C16.297 11.4333 17.5303 11 19.0637 11H19.2637C20.1637 11 20.9637 11.2167 21.6637 11.65V11H26.4137V31.35H27.1137L27.6137 36H21.6637V34.05L20.4137 36H19.0637ZM19.0137 15.65C18.847 15.65 18.7637 15.7333 18.7637 15.9V31.1C18.7637 31.2667 18.847 31.35 19.0137 31.35H21.6637V15.65H19.0137ZM34.1074 0.999998L34.1574 31.35H35.4074L35.9074 36H29.4074L29.3574 5.65H28.3574L28.8574 0.999998H34.1074ZM45.8699 31.35V36H42.9699C41.5699 36 40.4366 35.5833 39.5699 34.75C38.7033 33.8833 38.2699 32.75 38.2699 31.35V15.65H36.1699L36.5699 11H38.2699V5.65H37.0199L37.4199 0.999998H43.0199V11H45.8699L45.4699 15.65H43.0199V31.35H45.8699ZM47.1191 31.55V15.45C47.1191 14.05 47.5525 12.9333 48.4191 12.1C49.2858 11.2333 50.4191 10.8 51.8191 10.8H54.9191C56.3191 10.8 57.4525 11.2333 58.3191 12.1C59.1858 12.9333 59.6191 14.05 59.6191 15.45V21.6H54.8691V15.7C54.8691 15.5333 54.7858 15.45 54.6191 15.45H52.1191C51.9525 15.45 51.8691 15.5333 51.8691 15.7V21.6H59.6191V26.25H51.8691V31.3C51.8691 31.4667 51.9525 31.55 52.1191 31.55H54.6191C54.7858 31.55 54.8691 31.4833 54.8691 31.35V28.6H59.6191V31.55C59.6191 32.95 59.1858 34.0833 58.3191 34.95C57.4525 35.7833 56.3191 36.2 54.9191 36.2H51.8191C50.4191 36.2 49.2858 35.7833 48.4191 34.95C47.5525 34.0833 47.1191 32.95 47.1191 31.55ZM66.6711 36C65.1378 36 63.9044 35.5667 62.9711 34.7C62.0711 33.8 61.6211 32.6833 61.6211 31.35V15.65C61.6211 14.2833 62.0711 13.1667 62.9711 12.3C63.9044 11.4333 65.1378 11 66.6711 11H66.8711C67.7711 11 68.5711 11.2167 69.2711 11.65V5.65H68.0711L68.5711 0.999998H74.0211V31.35H74.7211L75.2211 36H69.2711V34.05L68.0211 36H66.6711ZM66.6211 15.65C66.4544 15.65 66.3711 15.7333 66.3711 15.9V31.1C66.3711 31.2667 66.4544 31.35 66.6211 31.35H69.2711V15.65H66.6211ZM76.2207 31.55V15.45C76.2207 14.05 76.654 12.9333 77.5207 12.1C78.3874 11.2333 79.5207 10.8 80.9207 10.8H84.5207C85.9207 10.8 87.054 11.2333 87.9207 12.1C88.7874 12.9333 89.2207 14.05 89.2207 15.45V22.05L84.4707 21.55V15.7C84.4707 15.5333 84.3874 15.45 84.2207 15.45H81.2207C81.054 15.45 80.9707 15.5333 80.9707 15.7V31.3C80.9707 31.4667 81.054 31.55 81.2207 31.55H84.2207C84.3874 31.55 84.4707 31.4833 84.4707 31.35V25.55H89.2207V31.55C89.2207 32.95 88.7874 34.0833 87.9207 34.95C87.054 35.7833 85.9207 36.2 84.5207 36.2H80.9207C79.5207 36.2 78.3874 35.7833 77.5207 34.95C76.654 34.0833 76.2207 32.95 76.2207 31.55ZM96.9051 11V13.2L98.2551 11H101.605V15.85H96.9051V36H92.1551V15.65H90.9551L91.4551 11H96.9051ZM103.125 31.55V15.45C103.125 14.05 103.558 12.9333 104.425 12.1C105.292 11.2333 106.425 10.8 107.825 10.8H110.925C112.325 10.8 113.458 11.2333 114.325 12.1C115.192 12.9333 115.625 14.05 115.625 15.45V21.6H110.875V15.7C110.875 15.5333 110.792 15.45 110.625 15.45H108.125C107.958 15.45 107.875 15.5333 107.875 15.7V21.6H115.625V26.25H107.875V31.3C107.875 31.4667 107.958 31.55 108.125 31.55H110.625C110.792 31.55 110.875 31.4833 110.875 31.35V28.6H115.625V31.55C115.625 32.95 115.192 34.0833 114.325 34.95C113.458 35.7833 112.325 36.2 110.925 36.2H107.825C106.425 36.2 105.292 35.7833 104.425 34.95C103.558 34.0833 103.125 32.95 103.125 31.55ZM117.627 31.55V15.45C117.627 14.05 118.06 12.9333 118.927 12.1C119.794 11.2333 120.927 10.8 122.327 10.8H125.427C126.827 10.8 127.96 11.2333 128.827 12.1C129.694 12.9333 130.127 14.05 130.127 15.45V21.6H125.377V15.7C125.377 15.5333 125.294 15.45 125.127 15.45H122.627C122.46 15.45 122.377 15.5333 122.377 15.7V21.6H130.127V26.25H122.377V31.3C122.377 31.4667 122.46 31.55 122.627 31.55H125.127C125.294 31.55 125.377 31.4833 125.377 31.35V28.6H130.127V31.55C130.127 32.95 129.694 34.0833 128.827 34.95C127.96 35.7833 126.827 36.2 125.427 36.2H122.327C120.927 36.2 119.794 35.7833 118.927 34.95C118.06 34.0833 117.627 32.95 117.627 31.55ZM132.341 36V5.65H131.141L131.641 0.999998H137.091V19.15L141.091 11H145.741L140.441 21.75L146.241 36H141.591L137.091 24.95V36H132.341ZM156.717 18.55V23.3H147.217V18.55H156.717Z" fill="#1C5E3C"/>
<path d="M158.99 36V5.65H158.24L158.74 0.999998H166.54L168.94 19.85L171.39 0.999998H179.04V36H174.29V8.8L170.59 31H167.34L163.74 9.4V36H158.99ZM186.349 36C184.815 36 183.582 35.5667 182.649 34.7C181.749 33.8 181.299 32.6833 181.299 31.35V15.65C181.299 14.2833 181.749 13.1667 182.649 12.3C183.582 11.4333 184.815 11 186.349 11H186.549C187.449 11 188.249 11.2167 188.949 11.65V11H193.699V31.35H194.399L194.899 36H188.949V34.05L187.699 36H186.349ZM186.299 15.65C186.132 15.65 186.049 15.7333 186.049 15.9V31.1C186.049 31.2667 186.132 31.35 186.299 31.35H188.949V15.65H186.299ZM201.837 11V13.2L203.187 11H206.537V15.85H201.837V36H197.087V15.65H195.887L196.387 11H201.837ZM208.268 36V5.65H207.068L207.568 0.999998H213.018V19.15L217.018 11H221.668L216.368 21.75L222.168 36H217.518L213.018 24.95V36H208.268ZM222.412 31.55V15.45C222.412 14.05 222.845 12.9333 223.712 12.1C224.579 11.2333 225.712 10.8 227.112 10.8H230.212C231.612 10.8 232.745 11.2333 233.612 12.1C234.479 12.9333 234.912 14.05 234.912 15.45V21.6H230.162V15.7C230.162 15.5333 230.079 15.45 229.912 15.45H227.412C227.245 15.45 227.162 15.5333 227.162 15.7V21.6H234.912V26.25H227.162V31.3C227.162 31.4667 227.245 31.55 227.412 31.55H229.912C230.079 31.55 230.162 31.4833 230.162 31.35V28.6H234.912V31.55C234.912 32.95 234.479 34.0833 233.612 34.95C232.745 35.7833 231.612 36.2 230.212 36.2H227.112C225.712 36.2 224.579 35.7833 223.712 34.95C222.845 34.0833 222.412 32.95 222.412 31.55ZM246.114 31.35V36H243.214C241.814 36 240.681 35.5833 239.814 34.75C238.947 33.8833 238.514 32.75 238.514 31.35V15.65H236.414L236.814 11H238.514V5.65H237.264L237.664 0.999998H243.264V11H246.114L245.714 15.65H243.264V31.35H246.114ZM253.057 42.65H248.307V15.65H247.107L247.607 11H253.057V12.95L254.307 11H255.657C257.191 11 258.407 11.4333 259.307 12.3C260.241 13.1667 260.707 14.2833 260.707 15.65V31.35C260.707 32.6833 260.241 33.8 259.307 34.7C258.407 35.5667 257.191 36 255.657 36H255.457C254.557 36 253.757 35.7833 253.057 35.35V42.65ZM255.707 15.65H253.057V31.35H255.707C255.874 31.35 255.957 31.2667 255.957 31.1V15.9C255.957 15.7333 255.874 15.65 255.707 15.65ZM267.701 0.999998L267.751 31.35H269.001L269.501 36H263.001L262.951 5.65H261.951L262.451 0.999998H267.701ZM275.558 36C274.024 36 272.791 35.5667 271.858 34.7C270.958 33.8 270.508 32.6833 270.508 31.35V15.65C270.508 14.2833 270.958 13.1667 271.858 12.3C272.791 11.4333 274.024 11 275.558 11H275.758C276.658 11 277.458 11.2167 278.158 11.65V11H282.908V31.35H283.608L284.108 36H278.158V34.05L276.908 36H275.558ZM275.508 15.65C275.341 15.65 275.258 15.7333 275.258 15.9V31.1C275.258 31.2667 275.341 31.35 275.508 31.35H278.158V15.65H275.508ZM285.107 31.55V15.45C285.107 14.05 285.541 12.9333 286.407 12.1C287.274 11.2333 288.407 10.8 289.807 10.8H293.407C294.807 10.8 295.941 11.2333 296.807 12.1C297.674 12.9333 298.107 14.05 298.107 15.45V22.05L293.357 21.55V15.7C293.357 15.5333 293.274 15.45 293.107 15.45H290.107C289.941 15.45 289.857 15.5333 289.857 15.7V31.3C289.857 31.4667 289.941 31.55 290.107 31.55H293.107C293.274 31.55 293.357 31.4833 293.357 31.35V25.55H298.107V31.55C298.107 32.95 297.674 34.0833 296.807 34.95C295.941 35.7833 294.807 36.2 293.407 36.2H289.807C288.407 36.2 287.274 35.7833 286.407 34.95C285.541 34.0833 285.107 32.95 285.107 31.55ZM300.098 31.55V15.45C300.098 14.05 300.531 12.9333 301.398 12.1C302.264 11.2333 303.398 10.8 304.798 10.8H307.898C309.298 10.8 310.431 11.2333 311.298 12.1C312.164 12.9333 312.598 14.05 312.598 15.45V21.6H307.848V15.7C307.848 15.5333 307.764 15.45 307.598 15.45H305.098C304.931 15.45 304.848 15.5333 304.848 15.7V21.6H312.598V26.25H304.848V31.3C304.848 31.4667 304.931 31.55 305.098 31.55H307.598C307.764 31.55 307.848 31.4833 307.848 31.35V28.6H312.598V31.55C312.598 32.95 312.164 34.0833 311.298 34.95C310.431 35.7833 309.298 36.2 307.898 36.2H304.798C303.398 36.2 302.264 35.7833 301.398 34.95C300.531 34.0833 300.098 32.95 300.098 31.55Z" fill="#957327"/>
</svg>
